<svg id="Layer_1" data-name="Layer 1" xmlns="http://www.w3.org/2000/svg" viewBox="0 0 132 146"><defs><style>.cls-1{opacity:0.12;}.cls-2,.cls-3{fill:#fff;stroke:#000;stroke-miterlimit:10;}.cls-2{stroke-width:2px;}.cls-3{stroke-width:1.5px;}</style></defs><title>Interface - Emissão de documentos</title><rect class="cls-1" x="29.75" y="18.93" width="88" height="118"/><rect class="cls-2" x="19.09" y="8.36" width="88" height="118"/><circle class="cls-3" cx="86.91" cy="107.15" r="9.26"/><circle class="cls-3" cx="86.91" cy="107.15" r="9.26"/><circle class="cls-3" cx="86.91" cy="107.15" r="9.26"/><circle class="cls-3" cx="86.91" cy="107.15" r="9.26"/><circle class="cls-3" cx="86.91" cy="107.15" r="9.26"/><polyline class="cls-3" points="81.33 105.89 84.98 110.35 92.3 103.22"/><line class="cls-2" x1="30.09" y1="34.36" x2="94.09" y2="34.36"/><line class="cls-2" x1="30.09" y1="43.36" x2="94.09" y2="43.36"/><line class="cls-2" x1="30.09" y1="52.36" x2="94.09" y2="52.36"/><line class="cls-2" x1="30.09" y1="61.36" x2="94.09" y2="61.36"/><line class="cls-2" x1="30.09" y1="70.36" x2="94.09" y2="70.36"/><line class="cls-2" x1="30.09" y1="79.36" x2="94.09" y2="79.36"/><line class="cls-2" x1="30.09" y1="88.36" x2="94.09" y2="88.36"/><line class="cls-2" x1="30.09" y1="97.36" x2="55.09" y2="97.36"/><line class="cls-2" x1="52.09" y1="22.36" x2="73.09" y2="22.36"/></svg>