<svg id="Layer_1" data-name="Layer 1" xmlns="http://www.w3.org/2000/svg" viewBox="0 0 56 63"><defs><style>.cls-1{fill:#707475;}.cls-2,.cls-3{fill:none;stroke:#707475;stroke-miterlimit:10;stroke-width:2.5px;}.cls-2{stroke-linecap:round;}.cls-3{stroke-linecap:square;}.cls-4{fill:#fff;}</style></defs><title>pdf_icon_9</title><path class="cls-1" d="M7,42H48a0,0,0,0,1,0,0V53.55A3.45,3.45,0,0,1,44.55,57H10.45A3.45,3.45,0,0,1,7,53.55V42A0,0,0,0,1,7,42Z"/><path class="cls-2" d="M46,56.52H9.94A2.48,2.48,0,0,1,7.47,54V8A2.48,2.48,0,0,1,9.94,5.52H40.76l3.71,4,4,4.53V54A2.48,2.48,0,0,1,46,56.52Z"/><polyline class="cls-3" points="39.72 6.02 39.72 14.51 48.26 14.51"/><path class="cls-4" d="M16.57,53.15v-7.7h3.51a4.43,4.43,0,0,1,1.83.34,2.63,2.63,0,0,1,1.18,1,2.72,2.72,0,0,1-1.18,4,4.42,4.42,0,0,1-1.83.35H17.77l1-1v3Zm2.18-2.72-1-1H20a1.53,1.53,0,0,0,1-.29,1.17,1.17,0,0,0,0-1.65,1.48,1.48,0,0,0-1-.3H17.77l1-1Z"/><path class="cls-4" d="M24.57,53.15v-7.7h3.64a5.08,5.08,0,0,1,2.23.47A3.72,3.72,0,0,1,32,47.25a4.14,4.14,0,0,1,0,4.09,3.67,3.67,0,0,1-1.52,1.34,5.08,5.08,0,0,1-2.23.47Zm2.18-1.74H28.1a2.45,2.45,0,0,0,1.16-.25,1.87,1.87,0,0,0,.77-.73,2.29,2.29,0,0,0,.27-1.14A2.22,2.22,0,0,0,30,48.16a1.91,1.91,0,0,0-.77-.72,2.45,2.45,0,0,0-1.16-.25H26.75Z"/><path class="cls-4" d="M35.83,53.15H33.66v-7.7h6v1.69H35.83Zm-.16-4.32h3.55v1.68H35.67Z"/><path class="cls-1" d="M30.37,28.46V18.06a.22.22,0,0,0-.23-.22H25.5a.22.22,0,0,0-.22.22v10.4H20.91a.37.37,0,0,0-.3.59L27.52,39a.36.36,0,0,0,.61,0L35,29.05a.37.37,0,0,0-.3-.59Z"/></svg>